<svg xmlns="http://www.w3.org/2000/svg" viewBox="0 0 1600 900" role="img" aria-hidden="true">
  <rect width="1600" height="900" fill="#f6efe2"/>

  <g transform="translate(1120,450)">
    <circle r="420" fill="#b97d1c"/>
    <circle r="360" fill="#f6efe2"/>
    <circle r="300" fill="#b97d1c"/>
    <circle r="240" fill="#f6efe2"/>
    <circle r="180" fill="#8a5c13"/>
    <circle r="60" fill="#f6efe2"/>

    <g stroke="#2a2018" stroke-width="5" stroke-linecap="round">
      <line x1="415" y1="0" x2="455" y2="0"/>
      <line x1="359.4" y1="207.5" x2="394.1" y2="227.5"/>
      <line x1="207.5" y1="359.4" x2="227.5" y2="394.1"/>
      <line x1="0" y1="415" x2="0" y2="455"/>
      <line x1="-207.5" y1="359.4" x2="-227.5" y2="394.1"/>
      <line x1="-359.4" y1="207.5" x2="-394.1" y2="227.5"/>
      <line x1="-415" y1="0" x2="-455" y2="0"/>
      <line x1="-359.4" y1="-207.5" x2="-394.1" y2="-227.5"/>
      <line x1="-207.5" y1="-359.4" x2="-227.5" y2="-394.1"/>
      <line x1="0" y1="-415" x2="0" y2="-455"/>
      <line x1="207.5" y1="-359.4" x2="227.5" y2="-394.1"/>
      <line x1="359.4" y1="-207.5" x2="394.1" y2="-227.5"/>
    </g>

    <line x1="0" y1="0" x2="150" y2="-260" stroke="#2a2018" stroke-width="8" stroke-linecap="round"/>
    <circle r="14" fill="#2a2018"/>
  </g>

  <g stroke="#2a2018" stroke-width="6" stroke-linecap="round">
    <line x1="120" y1="120" x2="120" y2="780"/>
    <line x1="120" y1="780" x2="980" y2="780"/>
  </g>
  <path d="M140,760 C 400,758 470,300 900,175" fill="none" stroke="#2a2018" stroke-width="7" stroke-linecap="round"/>
  <g fill="#2a2018">
    <circle cx="230" cy="757" r="8"/>
    <circle cx="430" cy="690" r="8"/>
    <circle cx="620" cy="470" r="8"/>
    <circle cx="800" cy="255" r="8"/>
  </g>
</svg>
